<svg xmlns="http://www.w3.org/2000/svg" xmlns:xlink="http://www.w3.org/1999/xlink" width="470" height="140" fill="none" viewBox="0 0 470 140"><rect width="0" height="0" x="0" y="0" fill="rgba(249, 249, 249, 1)"/><g opacity="1" transform="translate(0 0) rotate(0 235 70)"><rect width="470" height="140" x="0" y="0" fill="#43CF7C" opacity="1" transform="translate(0 0) rotate(0 235 70)"/><g opacity="1"><text transform="translate(14 28) rotate(0 108 42.5)"><tspan x="0" y="67.124" fill="#FFF" font-family="HarmonyOSSansSC-Bold" font-size="72" letter-spacing="0" line-height="0" opacity="1">梦之湾</tspan></text></g><path id="矩形 1" fill-rule="evenodd" style="fill:#fff" d="M10,105L188,105C193.52,105 198,100.52 198,95L198,10C198,4.48 193.52,0 188,0L10,0C4.48,0 0,4.48 0,10L0,95C0,100.52 4.48,105 10,105Z" opacity="1" transform="translate(258 18) rotate(0 99 52.5)"/><g opacity="1"><text transform="translate(287 28) rotate(0 70.5 42.5)"><tspan x=".228" y="67.124" fill="#43CF7C" font-family="HarmonyOSSansTC-Bold" font-size="72" letter-spacing="0" line-height="0" opacity="1">BBS</tspan></text></g></g></svg>